<svg xmlns="http://www.w3.org/2000/svg" width="512" height="512" viewBox="0 0 512 512">
  <rect width="512" height="512" fill="#4a7c59" />
  <rect x="0" y="0" width="512" height="512" fill="#4a7c59" />
  
  <!-- Grass texture pattern -->
  <g opacity="0.3">
    <rect x="0" y="0" width="64" height="64" fill="#3a6c49" />
    <rect x="64" y="64" width="64" height="64" fill="#3a6c49" />
    <rect x="128" y="0" width="64" height="64" fill="#3a6c49" />
    <rect x="192" y="64" width="64" height="64" fill="#3a6c49" />
    <rect x="256" y="0" width="64" height="64" fill="#3a6c49" />
    <rect x="320" y="64" width="64" height="64" fill="#3a6c49" />
    <rect x="384" y="0" width="64" height="64" fill="#3a6c49" />
    <rect x="448" y="64" width="64" height="64" fill="#3a6c49" />
    
    <rect x="64" y="0" width="64" height="64" fill="#5a8c69" />
    <rect x="0" y="64" width="64" height="64" fill="#5a8c69" />
    <rect x="192" y="0" width="64" height="64" fill="#5a8c69" />
    <rect x="128" y="64" width="64" height="64" fill="#5a8c69" />
    <rect x="320" y="0" width="64" height="64" fill="#5a8c69" />
    <rect x="256" y="64" width="64" height="64" fill="#5a8c69" />
    <rect x="448" y="0" width="64" height="64" fill="#5a8c69" />
    <rect x="384" y="64" width="64" height="64" fill="#5a8c69" />
  </g>
</svg>